<?xml version="1.0" encoding="utf-8"?>
<!-- Generator: Adobe Illustrator 19.0.0, SVG Export Plug-In . SVG Version: 6.00 Build 0)  -->
<svg version="1.1" id="Layer_1" xmlns="http://www.w3.org/2000/svg" xmlns:xlink="http://www.w3.org/1999/xlink" x="0px" y="0px"
	 viewBox="-285 87 388 388" style="enable-background:new -285 87 388 388;" xml:space="preserve">
<style type="text/css">
	.st0{fill:#FFFFFF;}
</style>
<path class="st0" d="M-28.6,155h-124.8c-35.1,0-63.6,28.5-63.6,63.6v124.8c0,35.1,28.5,63.6,63.6,63.6h124.8
	C6.5,407,35,378.5,35,343.4V218.6C35,183.6,6.5,155-28.6,155z M7.6,343.4c0,19.9-16.2,36.1-36.1,36.1h-124.8
	c-19.9,0-36.1-16.2-36.1-36.1V218.6c0-19.9,16.2-36.1,36.1-36.1h124.8c19.9,0,36.1,16.2,36.1,36.1V343.4z"/>
<path class="st0" d="M-24,229.5c-8.5,0-15.4-6.9-15.4-15.4c0-8.5,6.9-15.4,15.4-15.4s15.4,6.9,15.4,15.4
	C-8.7,222.7-15.6,229.5-24,229.5z"/>
<path class="st0" d="M-91,216.1c-35.8,0-64.9,29.1-64.9,64.9s29.1,64.9,64.9,64.9c35.8,0,64.9-29.1,64.9-64.9
	C-26.1,245.2-55.2,216.1-91,216.1z M-91,318.5c-20.7,0-37.5-16.8-37.5-37.5c0-20.7,16.8-37.5,37.5-37.5c20.7,0,37.5,16.8,37.5,37.5
	C-53.5,301.7-70.3,318.5-91,318.5z"/>
</svg>
